# xmcd CD database file
#
# Track frame offsets:
#	150
#	18198
#	36021
#	55119
#	68892
#	85365
#	101913
#	118911
#	139134
#	154482
#	172380
#
# Disc length: 2513 seconds
#
# Revision: 0
# Processed by: cddbd v1.5.2PL0 Copyright (c) Steve Scherf et al.
# Submitted via: CDex 1.51
#
DISCID=9f09cf0b
DTITLE=Jason Aldean - Wide Open
DYEAR=2009
DGENRE=Country
TTITLE0=Wide Open
TTITLE1=This I Gotta See
TTITLE2=Fast
TTITLE3=Crazy Town
TTITLE4=Don't Give Up on Me
TTITLE5=She's Country
TTITLE6=On My Highway
TTITLE7=Keep the Girl
TTITLE8=Big Green Tractor
TTITLE9=The Truth
TTITLE10=Love Was Easy
EXTD=YEAR: 2009
EXTT0=
EXTT1=
EXTT2=
EXTT3=
EXTT4=
EXTT5=
EXTT6=
EXTT7=
EXTT8=
EXTT9=
EXTT10=
PLAYORDER=
